<?xml version="1.0" encoding="UTF-8" standalone="no"?><!-- Generator: Gravit.io --><svg xmlns="http://www.w3.org/2000/svg" xmlns:xlink="http://www.w3.org/1999/xlink" style="isolation:isolate" viewBox="0 0 1280 800" width="1280pt" height="800pt"><defs><clipPath id="_clipPath_xVNUbQXNcCNvkTSaCJl3THvqlIZEeou6"><rect width="1280" height="800"/></clipPath></defs><g clip-path="url(#_clipPath_xVNUbQXNcCNvkTSaCJl3THvqlIZEeou6)"><clipPath id="_clipPath_VGPwbszjm3hjCW4DToQrpB7CcKz0Gsup"><rect x="0" y="0" width="1280" height="800" transform="matrix(1,0,0,1,0,0)" fill="rgb(255,255,255)"/></clipPath><g clip-path="url(#_clipPath_VGPwbszjm3hjCW4DToQrpB7CcKz0Gsup)"><g><path d=" M -352.392 329 C -118.952 417.455 67.984 313.311 101.608 356 C 135.232 398.689 234.214 328.664 266.608 356 C 299.003 383.336 347.62 316.723 408.608 356 C 469.596 395.277 526.499 320.135 558.608 356 C 590.718 391.865 661.258 321.841 703.608 356 C 745.959 390.159 810.783 325.252 846.608 356 C 882.434 386.748 943.368 313.311 972.608 356 C 1001.849 398.689 1055.422 304.781 1092.608 356 C 1129.795 407.219 1190.478 312.958 1209.608 349 Q 1228.739 385.042 1460.608 301 L 1508.608 1013 L -373.392 980 Q -585.831 240.545 -352.392 329 Z " fill="rgb(248,244,249)"/></g></g></g></svg>