<?xml version="1.0" encoding="UTF-8" standalone="no"?><!-- Generator: Gravit.io --><svg xmlns="http://www.w3.org/2000/svg" xmlns:xlink="http://www.w3.org/1999/xlink" style="isolation:isolate" viewBox="0 0 1280 800" width="1280pt" height="800pt"><defs><clipPath id="_clipPath_Mm65QFKWQLhTMC3cBjS4RN3eqCmklXGL"><rect width="1280" height="800"/></clipPath></defs><g clip-path="url(#_clipPath_Mm65QFKWQLhTMC3cBjS4RN3eqCmklXGL)"><path d=" M 901.35 690.428 C 895.34 686.975 890.253 681.772 886.914 675.118 C 877.794 656.945 885.145 634.786 903.318 625.667 C 921.492 616.547 943.65 623.898 952.77 642.071 C 956.109 648.725 957.24 655.913 956.416 662.796" fill="none" vector-effect="non-scaling-stroke" stroke-width="6" stroke="rgb(240,76,30)" stroke-linejoin="miter" stroke-linecap="square" stroke-miterlimit="3"/><path d=" M 894.83 -41.601 C 901.655 -40.388 908.203 -37.215 913.599 -32.085 C 928.334 -18.074 928.922 5.265 914.91 20 C 900.899 34.735 877.56 35.323 862.825 21.312 C 857.43 16.182 853.932 9.802 852.376 3.047" fill="none" vector-effect="non-scaling-stroke" stroke-width="6" stroke="rgb(240,76,30)" stroke-linejoin="miter" stroke-linecap="square" stroke-miterlimit="3"/><path d=" M 1246.788 156.939 C 1250.698 162.664 1253.014 169.562 1253.125 177.006 C 1253.429 197.337 1237.169 214.089 1216.838 214.393 C 1196.507 214.697 1179.754 198.437 1179.451 178.106 C 1179.339 170.662 1181.449 163.698 1185.185 157.859" fill="none" vector-effect="non-scaling-stroke" stroke-width="6" stroke="rgb(240,76,30)" stroke-linejoin="miter" stroke-linecap="square" stroke-miterlimit="3"/><path d=" M 94.885 83.967 C 88.307 81.78 82.286 77.694 77.689 71.838 C 65.134 55.844 67.926 32.666 83.92 20.11 C 99.914 7.555 123.092 10.347 135.648 26.341 C 140.244 32.197 142.784 39.016 143.347 45.925" fill="none" vector-effect="non-scaling-stroke" stroke-width="6" stroke="rgb(240,76,30)" stroke-linejoin="miter" stroke-linecap="square" stroke-miterlimit="3"/><path d=" M 1215.458 588.847 C 1221.019 592.985 1225.456 598.752 1227.986 605.754 C 1234.896 624.877 1224.981 646.013 1205.858 652.923 C 1186.735 659.833 1165.599 649.918 1158.689 630.795 C 1156.159 623.793 1155.884 616.522 1157.515 609.784" fill="none" vector-effect="non-scaling-stroke" stroke-width="6" stroke="rgb(240,76,30)" stroke-linejoin="miter" stroke-linecap="square" stroke-miterlimit="3"/><path d=" M 658.81 27.962 C 664.701 31.617 669.608 36.99 672.719 43.753 C 681.217 62.226 673.118 84.122 654.646 92.62 C 636.173 101.117 614.277 93.019 605.779 74.546 C 602.668 67.783 601.781 60.56 602.839 53.71" fill="none" vector-effect="non-scaling-stroke" stroke-width="6" stroke="rgb(240,76,30)" stroke-linejoin="miter" stroke-linecap="square" stroke-miterlimit="3"/><path d=" M 66.16 530.98 C 61.126 526.214 57.401 519.964 55.715 512.712 C 51.111 492.907 63.452 473.09 83.257 468.485 C 103.062 463.881 122.88 476.222 127.484 496.027 C 129.17 503.279 128.584 510.532 126.169 517.029" fill="none" vector-effect="non-scaling-stroke" stroke-width="6" stroke="rgb(240,76,30)" stroke-linejoin="miter" stroke-linecap="square" stroke-miterlimit="3"/><path d=" M 187.919 641.399 C 194.806 640.614 201.988 641.786 208.622 645.163 C 226.744 654.386 233.968 676.586 224.744 694.707 C 215.521 712.828 193.321 720.053 175.2 710.829 C 168.565 707.452 163.391 702.336 159.973 696.306" fill="none" vector-effect="non-scaling-stroke" stroke-width="6" stroke="rgb(240,76,30)" stroke-linejoin="miter" stroke-linecap="square" stroke-miterlimit="3"/><path d=" M 1139.192 395.572 C 1138.252 388.704 1139.262 381.498 1142.489 374.789 C 1151.301 356.464 1173.332 348.741 1191.657 357.553 C 1209.981 366.365 1217.704 388.397 1208.892 406.721 C 1205.666 413.431 1200.667 418.719 1194.716 422.272" fill="none" vector-effect="non-scaling-stroke" stroke-width="6" stroke="rgb(240,76,30)" stroke-linejoin="miter" stroke-linecap="square" stroke-miterlimit="3"/><path d=" M 934.12 467.316 C 933.832 460.39 935.517 453.311 939.362 446.936 C 949.863 429.525 972.525 423.915 989.937 434.416 C 1007.348 444.918 1012.958 467.58 1002.457 484.991 C 998.612 491.366 993.137 496.159 986.876 499.136" fill="none" vector-effect="non-scaling-stroke" stroke-width="6" stroke="rgb(240,76,30)" stroke-linejoin="miter" stroke-linecap="square" stroke-miterlimit="3"/><path d=" M 501.869 102.724 C 500.775 109.569 497.718 116.172 492.683 121.656 C 478.933 136.635 455.608 137.632 440.629 123.882 C 425.65 110.131 424.653 86.806 438.404 71.827 C 443.438 66.343 449.756 62.733 456.483 61.06" fill="none" vector-effect="non-scaling-stroke" stroke-width="6" stroke="rgb(240,76,30)" stroke-linejoin="miter" stroke-linecap="square" stroke-miterlimit="3"/><path d=" M 855.922 170.039 C 849.053 170.971 841.848 169.951 835.143 166.716 C 816.83 157.881 809.135 135.839 817.97 117.526 C 826.806 99.213 848.848 91.518 867.161 100.354 C 873.866 103.589 879.148 108.594 882.694 114.55" fill="none" vector-effect="non-scaling-stroke" stroke-width="6" stroke="rgb(240,76,30)" stroke-linejoin="miter" stroke-linecap="square" stroke-miterlimit="3"/><path d=" M 281.156 264.751 C 277.574 258.817 275.649 251.799 275.956 244.361 C 276.794 224.045 293.969 208.231 314.285 209.07 C 334.601 209.908 350.414 227.083 349.576 247.399 C 349.269 254.837 346.772 261.672 342.713 267.291" fill="none" vector-effect="non-scaling-stroke" stroke-width="6" stroke="rgb(240,76,30)" stroke-linejoin="miter" stroke-linecap="square" stroke-miterlimit="3"/><path d=" M 354.792 726.556 C 356.309 719.792 359.772 713.392 365.138 708.232 C 379.795 694.139 403.137 694.596 417.23 709.253 C 431.323 723.91 430.866 747.251 416.209 761.345 C 410.843 766.505 404.312 769.714 397.495 770.965" fill="none" vector-effect="non-scaling-stroke" stroke-width="6" stroke="rgb(240,76,30)" stroke-linejoin="miter" stroke-linecap="square" stroke-miterlimit="3"/><path d=" M 1055.324 711.986 C 1060.121 706.982 1066.395 703.296 1073.657 701.656 C 1093.491 697.175 1113.23 709.64 1117.711 729.473 C 1122.192 749.307 1109.727 769.047 1089.893 773.527 C 1082.631 775.168 1075.382 774.537 1068.9 772.081" fill="none" vector-effect="non-scaling-stroke" stroke-width="6" stroke="rgb(240,76,30)" stroke-linejoin="miter" stroke-linecap="square" stroke-miterlimit="3"/><path d=" M 228.851 391.517 C 233.649 386.513 239.923 382.827 247.184 381.187 C 267.018 376.706 286.758 389.171 291.238 409.004 C 295.719 428.838 283.254 448.578 263.421 453.058 C 256.159 454.699 248.91 454.068 242.427 451.612" fill="none" vector-effect="non-scaling-stroke" stroke-width="6" stroke="rgb(240,76,30)" stroke-linejoin="miter" stroke-linecap="square" stroke-miterlimit="3"/><path d=" M 981.11 232.969 C 985.907 227.965 992.181 224.279 999.443 222.639 C 1019.277 218.158 1039.017 230.623 1043.497 250.457 C 1047.978 270.29 1035.513 290.03 1015.679 294.511 C 1008.418 296.151 1001.168 295.52 994.686 293.064" fill="none" vector-effect="non-scaling-stroke" stroke-width="6" stroke="rgb(240,76,30)" stroke-linejoin="miter" stroke-linecap="square" stroke-miterlimit="3"/><path d=" M -5.667 809.338 C -12.278 807.254 -18.363 803.263 -23.05 797.479 C -35.854 781.683 -33.425 758.464 -17.629 745.66 C -1.833 732.856 21.386 735.286 34.19 751.081 C 38.877 756.865 41.523 763.643 42.194 770.543" fill="none" vector-effect="non-scaling-stroke" stroke-width="6" stroke="rgb(240,76,30)" stroke-linejoin="miter" stroke-linecap="square" stroke-miterlimit="3"/><path d=" M 671.397 730.811 C 670.814 723.904 672.196 716.76 675.766 710.227 C 685.516 692.384 707.919 685.813 725.762 695.564 C 743.605 705.314 750.175 727.716 740.425 745.559 C 736.855 752.092 731.589 757.114 725.461 760.354" fill="none" vector-effect="non-scaling-stroke" stroke-width="6" stroke="rgb(240,76,30)" stroke-linejoin="miter" stroke-linecap="square" stroke-miterlimit="3"/><path d=" M 1054.083 100.445 C 1049.141 95.585 1045.535 89.264 1043.987 81.982 C 1039.759 62.093 1052.473 42.513 1072.362 38.285 C 1092.251 34.057 1111.831 46.772 1116.059 66.661 C 1117.607 73.943 1116.884 81.184 1114.346 87.634" fill="none" vector-effect="non-scaling-stroke" stroke-width="6" stroke="rgb(240,76,30)" stroke-linejoin="miter" stroke-linecap="square" stroke-miterlimit="3"/><path d=" M 136.629 198.305 C 143.354 199.984 149.67 203.598 154.7 209.086 C 168.44 224.075 167.425 247.399 152.436 261.139 C 137.447 274.878 114.123 273.864 100.383 258.875 C 95.353 253.387 92.3 246.781 91.212 239.935" fill="none" vector-effect="non-scaling-stroke" stroke-width="6" stroke="rgb(240,76,30)" stroke-linejoin="miter" stroke-linecap="square" stroke-miterlimit="3"/></g></svg>