<?xml version="1.0" encoding="UTF-8" standalone="no"?><!-- Generator: Gravit.io --><svg xmlns="http://www.w3.org/2000/svg" xmlns:xlink="http://www.w3.org/1999/xlink" style="isolation:isolate" viewBox="0 0 550 727.284" width="550pt" height="727.284pt"><defs><clipPath id="_clipPath_szuc5bWzE65JEp5rPElWBR122gjPdHKQ"><rect width="550" height="727.284"/></clipPath></defs><g clip-path="url(#_clipPath_szuc5bWzE65JEp5rPElWBR122gjPdHKQ)"><clipPath id="_clipPath_C3BL06eZjztqx2avjgtNfTMHBFaBncUb"><rect x="0" y="0" width="550" height="727.284" transform="matrix(1,0,0,1,0,0)" fill="rgb(255,255,255)"/></clipPath><g clip-path="url(#_clipPath_C3BL06eZjztqx2avjgtNfTMHBFaBncUb)"><g><path d=" M 324.03 31.254 L 324.03 679.454 C 324.014 695.533 310.979 708.559 294.9 708.564 L 31.75 708.564 C 24.024 708.578 16.61 705.516 11.144 700.054 C 5.679 694.593 2.612 687.181 2.62 679.454 L 2.62 31.254 C 2.62 23.528 5.688 16.119 11.152 10.656 C 16.615 5.193 24.024 2.124 31.75 2.124 L 71.13 2.124 L 71.13 7.174 C 71.129 20.42 81.864 31.161 95.11 31.164 L 228.95 31.164 C 234.07 31.175 239.057 29.534 243.17 26.484 C 244.002 25.88 244.79 25.218 245.53 24.504 C 250.265 19.984 252.939 13.72 252.93 7.174 L 252.93 2.124 L 294.9 2.124 C 302.627 2.122 310.038 5.19 315.501 10.654 C 320.964 16.117 324.033 23.528 324.03 31.254 Z " fill="rgb(63,61,86)"/><circle vector-effect="non-scaling-stroke" cx="75.93035335317948" cy="110.1243393696202" r="7" fill="rgb(242,242,242)"/><path d=" M 245.53 24.504 C 244.79 25.218 244.002 25.88 243.17 26.484 C 260.504 56.987 289.836 78.822 324.03 86.674 L 324.03 83.554 C 290.761 75.706 262.295 54.293 245.53 24.504 L 245.53 24.504 Z " fill="rgb(1,151,246)"/><path d=" M 185.72 31.164 L 182.44 31.164 C 206.137 91.374 260.069 134.435 324.03 144.214 L 324.03 141.114 C 261.753 131.443 209.188 89.656 185.72 31.164 L 185.72 31.164 Z " fill="rgb(1,151,246)"/><path d=" M 125.3 31.164 L 122.14 31.164 C 148.57 122.904 228.32 191.194 324.03 202.284 L 324.03 199.234 C 229.98 188.194 151.6 121.204 125.3 31.164 Z " fill="rgb(1,151,246)"/><path d=" M 52.93 161.946 L 51.108 161.946 L 51.108 160.124 L 50.753 160.124 L 50.753 161.946 L 48.93 161.946 L 48.93 162.302 L 50.753 162.302 L 50.753 164.124 L 51.108 164.124 L 51.108 162.302 L 52.93 162.302 L 52.93 161.946 L 52.93 161.946 Z " fill="rgb(242,242,242)"/><path d=" M 175.93 70.946 L 174.108 70.946 L 174.108 69.124 L 173.753 69.124 L 173.753 70.946 L 171.93 70.946 L 171.93 71.302 L 173.753 71.302 L 173.753 73.124 L 174.108 73.124 L 174.108 71.302 L 175.93 71.302 L 175.93 70.946 L 175.93 70.946 Z " fill="rgb(242,242,242)"/><path d=" M 70.93 233.946 L 69.108 233.946 L 69.108 232.124 L 68.753 232.124 L 68.753 233.946 L 66.93 233.946 L 66.93 234.302 L 68.753 234.302 L 68.753 236.124 L 69.108 236.124 L 69.108 234.302 L 70.93 234.302 L 70.93 233.946 L 70.93 233.946 Z " fill="rgb(242,242,242)"/><path d=" M 154.93 180.946 L 153.108 180.946 L 153.108 179.124 L 152.753 179.124 L 152.753 180.946 L 150.93 180.946 L 150.93 181.302 L 152.753 181.302 L 152.753 183.124 L 153.108 183.124 L 153.108 181.302 L 154.93 181.302 L 154.93 180.946 L 154.93 180.946 Z " fill="rgb(242,242,242)"/><path d=" M 274.93 213.946 L 273.108 213.946 L 273.108 212.124 L 272.753 212.124 L 272.753 213.946 L 270.93 213.946 L 270.93 214.302 L 272.753 214.302 L 272.753 216.124 L 273.108 216.124 L 273.108 214.302 L 274.93 214.302 L 274.93 213.946 L 274.93 213.946 Z " fill="rgb(242,242,242)"/><circle vector-effect="non-scaling-stroke" cx="253.93035335317938" cy="127.12433936962017" r="3.999999999999986" fill="rgb(255,101,132)"/><path d=" M 110.63 220.924 L 108.36 221.274 C 109.07 225.814 109.63 230.454 110.04 235.044 L 112.33 234.844 C 111.92 230.194 111.35 225.514 110.63 220.924 Z " fill="rgb(230,230,230)"/><path d=" M 104.42 193.584 L 102.22 194.254 C 103.55 198.654 104.74 203.164 105.75 207.654 L 108 207.144 C 106.97 202.604 105.76 198.044 104.42 193.584 Z " fill="rgb(230,230,230)"/><path d=" M 94.51 167.364 L 92.42 168.324 C 94.34 172.514 96.14 176.814 97.77 181.114 L 99.92 180.304 C 98.27 175.954 96.46 171.594 94.51 167.364 Z " fill="rgb(230,230,230)"/><path d=" M 81.11 142.784 L 79.17 144.014 C 81.64 147.894 84.01 151.914 86.21 155.944 L 88.23 154.844 C 86.01 150.764 83.61 146.704 81.11 142.784 Z " fill="rgb(230,230,230)"/><path d=" M 64.45 120.254 L 62.7 121.744 C 65.68 125.244 68.58 128.904 71.32 132.604 L 73.16 131.234 C 70.4 127.494 67.47 123.794 64.45 120.254 Z " fill="rgb(230,230,230)"/><path d=" M 44.87 100.194 L 43.34 101.904 C 46.78 104.974 50.15 108.204 53.36 111.494 L 55.01 109.884 C 51.76 106.554 48.35 103.294 44.87 100.194 Z " fill="rgb(230,230,230)"/><path d=" M 22.75 82.974 L 21.46 84.874 C 25.28 87.444 29.06 90.184 32.69 93.014 L 34.11 91.204 C 30.43 88.344 26.61 85.574 22.75 82.974 Z " fill="rgb(230,230,230)"/><path d=" M 2.62 71.014 L 2.62 73.614 C 5.01 74.864 7.38 76.174 9.7 77.514 L 10.85 75.524 Q 6.8 73.184 2.62 71.014 Z " fill="rgb(230,230,230)"/><path d=" M 110.111 436.927 C 110.484 434.691 110.825 432.408 111.125 430.142 L 113.405 430.444 C 113.101 432.736 112.756 435.044 112.379 437.305 L 110.111 436.927 Z " fill="rgb(230,230,230)"/><path d=" M 103.702 463.907 L 105.899 464.591 C 107.278 460.147 108.526 455.595 109.606 451.059 L 107.367 450.53 C 106.296 455.016 105.07 459.512 103.702 463.907 Z " fill="rgb(230,230,230)"/><path d=" M 93.66 489.738 L 95.747 490.716 C 97.73 486.508 99.587 482.173 101.271 477.832 L 99.125 476.995 C 97.461 481.288 95.624 485.577 93.66 489.738 Z " fill="rgb(230,230,230)"/><path d=" M 80.149 513.972 L 82.077 515.224 C 84.62 511.324 87.06 507.281 89.331 503.214 L 87.326 502.089 C 85.084 506.112 82.664 510.107 80.149 513.972 Z " fill="rgb(230,230,230)"/><path d=" M 63.432 536.11 L 65.175 537.62 C 68.234 534.092 71.2 530.422 74.011 526.71 L 72.17 525.333 C 69.398 529.002 66.462 532.627 63.432 536.11 Z " fill="rgb(230,230,230)"/><path d=" M 43.857 555.755 L 45.371 557.484 C 48.888 554.417 52.326 551.18 55.612 547.892 L 53.985 546.263 C 50.737 549.518 47.328 552.709 43.857 555.755 Z " fill="rgb(230,230,230)"/><path d=" M 21.804 572.546 L 23.074 574.47 C 26.957 571.906 30.813 569.173 34.513 566.358 L 33.122 564.522 C 29.458 567.314 25.65 570.015 21.804 572.546 Z " fill="rgb(230,230,230)"/><path d=" M 11.11 581.774 C 8.33 583.344 5.49 584.864 2.62 586.304 L 2.62 583.724 C 5.1 582.464 7.56 581.134 9.97 579.784 L 11.11 581.774 Z " fill="rgb(230,230,230)"/><path d=" M 110.785 249.23 L 113.084 249.188 C 113.126 251.509 113.129 253.843 113.093 256.124 L 110.795 256.088 C 110.83 253.833 110.827 251.525 110.785 249.23 Z " fill="rgb(230,230,230)"/><path d=" M 12.72 303.756 L 247.93 303.756 C 265.435 303.756 282.222 310.71 294.599 323.087 C 306.977 335.464 313.93 352.252 313.93 369.756 L 313.93 378.492 L 78.72 378.492 C 61.216 378.492 44.429 371.539 32.051 359.162 C 19.674 346.784 12.72 329.997 12.72 312.493 L 12.72 303.756 L 12.72 303.756 Z " fill="rgb(255,255,255)"/><path d=" M 168.82 707.646 C 168.591 707.271 163.179 698.236 161.303 679.474 C 159.583 662.261 160.689 633.247 175.736 592.776 C 204.242 516.105 169.167 454.243 168.808 453.626 L 170.539 452.622 C 170.63 452.779 179.68 468.551 185.027 493.666 C 192.092 526.964 189.519 561.585 177.611 593.473 C 149.154 670.013 170.31 706.246 170.527 706.604 L 168.82 707.646 Z " fill="rgb(242,242,242)"/><circle vector-effect="non-scaling-stroke" cx="157.6735933531793" cy="436.12433936962015" r="13" fill="rgb(1,151,246)"/><circle vector-effect="non-scaling-stroke" cx="198.67359335317937" cy="484.1243393696201" r="13" fill="rgb(242,242,242)"/><circle vector-effect="non-scaling-stroke" cx="170.6735933531793" cy="516.1243393696201" r="13" fill="rgb(1,151,246)"/><circle vector-effect="non-scaling-stroke" cx="204.67359335317937" cy="543.12433936962" r="13" fill="rgb(1,151,246)"/><circle vector-effect="non-scaling-stroke" cx="160.67359335317937" cy="585.1243393696201" r="13" fill="rgb(242,242,242)"/><path d=" M 176.674 708.124 C 176.674 708.124 163.674 676.124 202.674 652.124 L 176.674 708.124 Z " fill="rgb(242,242,242)"/><path d=" M 160.686 707.544 C 160.686 707.544 154.769 673.515 108.977 673.806 L 160.686 707.544 Z " fill="rgb(242,242,242)"/><g style="opacity:0.2;"><g opacity="0.2"><circle vector-effect="non-scaling-stroke" cx="108.93035335317943" cy="341.12433936962015" r="79.99999999999999" fill="rgb(1,151,246)"/></g></g><g style="opacity:0.2;"><g opacity="0.2"><circle vector-effect="non-scaling-stroke" cx="108.93035335317944" cy="341.1243393696202" r="56.33803000000001" fill="rgb(1,151,246)"/></g></g><circle vector-effect="non-scaling-stroke" cx="108.93035335317943" cy="341.12433936962015" r="37.18309999999998" fill="rgb(1,151,246)"/><path d=" M 115.691 333.104 C 115.692 329.959 113.523 327.228 110.459 326.517 C 107.395 325.806 104.245 327.302 102.86 330.126 C 101.475 332.95 102.221 336.356 104.66 338.343 L 102.17 355.772 L 115.691 355.772 L 113.201 338.343 C 114.778 337.061 115.693 335.137 115.691 333.104 Z " fill="rgb(255,255,255)"/><path d=" M 482.611 55.424 C 482.611 55.424 460.309 35.43 430.317 73.112 C 430.317 73.112 353.414 129.252 342.647 143.863 C 342.647 143.863 387.251 125.406 402.632 117.716 C 418.012 110.026 417.243 111.564 417.243 111.564 C 417.243 111.564 396.479 126.175 392.634 140.787 C 388.789 155.399 391.865 167.703 384.944 182.315 C 378.023 196.927 517.218 192.312 517.218 192.312 C 517.218 192.312 531.06 168.472 527.215 143.863 C 523.37 119.254 525.677 58.501 482.611 55.424 Z " fill="rgb(47,46,65)"/><path d=" M 440.429 118.326 C 440.429 118.326 445.278 152.273 424.494 159.894 C 424.494 159.894 411.331 177.906 411.331 177.906 L 442.507 193.148 L 475.761 182.756 L 486.846 166.129 C 486.846 166.129 468.833 161.972 473.683 149.502 C 473.683 149.502 479.918 132.875 479.918 132.875 L 440.429 118.326 Z " fill="rgb(255,185,185)"/><g style="opacity:0.1;"><g opacity="0.1"><path d=" M 440.429 118.326 C 440.429 118.326 445.278 152.273 424.494 159.894 C 424.494 159.894 411.331 177.906 411.331 177.906 L 442.507 193.148 L 475.761 182.756 L 486.846 166.129 C 486.846 166.129 468.833 161.972 473.683 149.502 C 473.683 149.502 479.918 132.875 479.918 132.875 L 440.429 118.326 Z " fill="rgb(0,0,0)"/></g></g><path d=" M 527.72 215.317 C 527.72 215.317 522.871 279.054 524.256 281.825 C 524.256 281.825 524.256 380.894 524.256 380.894 C 524.256 380.894 533.955 432.854 521.485 435.625 C 521.485 435.625 511.786 377.43 511.786 377.43 L 499.316 297.067 L 500.701 217.396 L 527.72 215.317 Z " fill="rgb(255,185,185)"/><g style="opacity:0.1;"><g opacity="0.1"><path d=" M 527.72 215.317 C 527.72 215.317 522.871 279.054 524.256 281.825 C 524.256 281.825 524.256 380.894 524.256 380.894 C 524.256 380.894 533.955 432.854 521.485 435.625 C 521.485 435.625 511.786 377.43 511.786 377.43 L 499.316 297.067 L 500.701 217.396 L 527.72 215.317 Z " fill="rgb(0,0,0)"/></g></g><path d=" M 392.626 407.22 C 392.626 407.22 369.764 493.819 370.457 536.079 C 370.457 536.079 380.156 637.227 380.156 637.227 C 380.156 637.227 381.541 662.86 379.463 665.631 C 377.385 668.402 389.855 680.18 389.855 680.18 L 403.018 672.559 L 407.867 667.017 L 407.867 662.167 C 407.867 662.167 400.247 638.613 406.482 619.907 C 406.482 619.907 416.181 554.092 409.946 539.543 L 452.899 412.07 L 392.626 407.22 Z " fill="rgb(255,185,185)"/><path d=" M 391.24 669.095 C 391.24 669.095 382.927 658.703 377.385 662.167 C 371.842 665.631 362.836 689.186 362.836 689.186 C 362.836 689.186 331.66 718.976 353.83 720.362 C 375.999 721.747 385.698 714.127 388.469 708.584 C 391.24 703.042 416.874 688.493 416.874 688.493 C 416.874 688.493 414.102 662.167 409.946 661.475 C 405.789 660.782 399.554 671.866 399.554 671.866 L 391.24 669.095 Z " fill="rgb(47,46,65)"/><path d=" M 468.14 412.763 L 468.14 498.669 C 468.221 509.092 468.915 519.502 470.219 529.844 C 472.297 545.086 458.441 658.703 458.441 658.703 L 459.827 678.794 L 477.146 677.409 L 479.225 660.089 L 504.165 583.882 C 504.165 583.882 512.479 537.465 508.322 520.145 C 508.322 520.145 529.799 391.979 529.799 391.979 L 468.14 412.763 Z " fill="rgb(255,185,185)"/><path d=" M 454.284 673.945 L 459.415 672.829 C 459.415 672.829 463.291 664.246 468.14 666.324 C 471.553 667.898 474.786 669.835 477.783 672.102 L 479.918 676.023 C 479.918 676.023 484.767 686.415 491.002 693.343 C 491.002 693.343 504.165 715.512 493.773 716.898 C 493.773 716.898 469.526 718.976 465.369 715.512 C 465.369 715.512 463.983 706.506 459.827 705.12 C 459.827 705.12 452.206 699.578 452.899 698.192 C 453.592 696.807 454.284 673.945 454.284 673.945 Z " fill="rgb(47,46,65)"/><circle vector-effect="non-scaling-stroke" cx="468.14015335317936" cy="111.39853936962015" r="30.790200000000027" fill="rgb(255,185,185)"/><path d=" M 409.946 165.436 L 419.097 162.241 C 419.097 162.241 415.488 168.207 434.886 171.671 C 434.886 171.671 474.373 176.362 483.381 165.01 C 483.381 165.01 486.846 163.358 491.695 168.207 C 496.545 173.057 499.316 171.671 499.316 171.671 L 495.852 189.684 L 488.924 222.938 L 479.918 247.878 L 454.284 242.336 L 426.573 222.245 L 416.181 195.226 L 416.181 170.286 L 409.946 165.436 Z " fill="rgb(1,151,246)"/><path d=" M 494.466 175.135 L 501.394 170.286 C 501.394 170.286 524.949 174.443 526.335 185.527 L 508.322 220.167 C 511.996 229.805 511.747 240.499 507.629 249.957 C 500.701 265.891 501.394 269.355 501.394 269.355 L 496.545 290.139 L 408.56 297.067 C 408.56 297.067 405.096 288.753 403.711 287.367 C 403.711 287.367 402.325 281.132 403.711 281.132 C 403.711 281.132 403.711 279.054 402.325 276.976 C 402.325 276.976 400.247 274.204 402.325 271.433 C 402.325 271.433 398.861 243.722 398.861 243.722 L 398.861 216.703 L 375.306 185.527 C 375.306 185.527 383.62 173.057 387.776 171.671 C 387.776 171.671 411.707 164.821 411.707 164.821 L 416.181 171.409 L 422.416 221.552 L 431.422 252.035 L 469.343 245.592 L 484.074 220.859 L 493.773 191.762 L 494.466 175.135 Z " fill="rgb(1,151,246)"/><path d=" M 520.792 181.37 L 526.335 185.527 C 526.335 185.527 531.184 224.323 529.799 227.095 C 529.799 227.095 504.165 232.637 503.473 231.251 C 502.78 229.866 520.792 181.37 520.792 181.37 Z " fill="rgb(1,151,246)"/><path d=" M 406.482 161.972 L 413.41 207.696 C 413.41 207.696 407.175 275.59 408.56 289.446 L 409.946 293.603 C 409.946 293.603 407.175 292.217 406.482 294.988 C 406.482 294.988 406.482 306.766 406.482 306.766 C 406.482 306.766 402.325 310.922 400.939 333.784 C 400.939 333.784 382.927 411.377 389.162 413.455 C 389.162 413.455 432.808 425.926 452.899 423.847 C 452.899 423.847 545.04 397.521 544.347 391.286 C 544.347 391.286 509.015 297.067 509.015 297.067 C 509.015 297.067 502.78 286.675 502.78 285.289 C 502.78 283.903 511.093 278.361 509.015 272.819 C 506.936 267.276 495.852 209.082 495.852 209.082 L 503.473 167.515 L 493.081 164.743 L 485.46 204.925 C 485.46 204.925 455.67 219.474 424.494 206.311 L 417.566 159.201 L 406.482 161.972 Z " fill="rgb(47,46,65)"/><path d=" M 441.773 89.812 C 441.773 89.812 493.04 125.145 506.895 109.21 C 506.895 109.21 482.648 79.42 482.648 79.42 L 450.779 75.957 L 441.773 89.812 Z " fill="rgb(47,46,65)"/><path d=" M 360.159 465.166 C 371.076 473.293 386.333 472.034 395.771 462.228 C 405.209 452.422 405.883 437.128 397.344 426.529 C 388.805 415.931 373.718 413.335 362.128 420.471 C 350.538 427.606 346.062 442.246 351.68 454.642 L 280.973 513.514 L 271.559 502.341 L 267.329 505.17 L 262.622 499.583 L 266.49 496.324 L 261.782 490.738 L 255.766 495.807 L 258.663 499.245 L 252.216 504.676 L 249.319 501.238 L 239.865 509.205 L 244.21 514.362 L 247.648 511.465 L 252.355 517.052 L 248.058 520.673 L 256.748 530.987 L 246.434 539.677 L 256.935 552.14 L 360.159 465.166 Z  M 377.813 425.674 C 385.019 426.29 391.145 431.186 393.334 438.079 C 395.522 444.972 393.343 452.505 387.813 457.165 C 382.282 461.825 374.488 462.695 368.066 459.369 C 361.644 456.042 357.858 449.175 358.474 441.968 C 359.315 432.129 367.973 424.833 377.813 425.674 L 377.813 425.674 Z " fill="rgb(1,151,246)"/><path d=" M 370.457 223.631 C 370.457 223.631 375.306 287.367 373.921 290.139 C 373.921 290.139 373.921 389.208 373.921 389.208 C 373.921 389.208 364.222 441.167 376.692 443.938 C 376.692 443.938 386.391 385.744 386.391 385.744 L 398.861 305.38 L 397.476 225.709 L 370.457 223.631 Z " fill="rgb(255,185,185)"/><path d=" M 380.848 183.449 L 375.306 185.527 C 375.306 185.527 364.914 229.173 367.685 229.173 C 367.685 229.173 403.711 233.33 403.711 231.944 C 403.711 231.944 397.475 196.612 397.475 196.612 L 380.848 183.449 Z " fill="rgb(1,151,246)"/></g></g></g></svg>